<mxfile host="app.diagrams.net" agent="Mozilla/5.0 (Windows NT 10.0; Win64; x64) AppleWebKit/537.36 (KHTML, like Gecko) Chrome/137.0.0.0 Safari/537.36" version="27.1.3">
  <diagram name="Trang-1" id="4qzQ0svcoJek6TvUi4AK">
    <mxGraphModel dx="1042" dy="562" grid="1" gridSize="10" guides="1" tooltips="1" connect="1" arrows="1" fold="1" page="1" pageScale="1" pageWidth="827" pageHeight="1169" math="0" shadow="0">
      <root>
        <mxCell id="0" />
        <mxCell id="1" parent="0" />
        <object label="User" id="cFWXLPSGByRplZVlARN5-1">
          <mxCell style="shape=umlActor;verticalLabelPosition=bottom;verticalAlign=top;html=1;outlineConnect=0;" vertex="1" parent="1">
            <mxGeometry x="430" y="230" width="30" height="60" as="geometry" />
          </mxCell>
        </object>
        <mxCell id="cFWXLPSGByRplZVlARN5-2" value="" style="endArrow=none;dashed=1;html=1;rounded=0;entryX=0.5;entryY=0.5;entryDx=0;entryDy=0;entryPerimeter=0;" edge="1" parent="1">
          <mxGeometry width="50" height="50" relative="1" as="geometry">
            <mxPoint x="444.5" y="400" as="sourcePoint" />
            <mxPoint x="444.5" y="310" as="targetPoint" />
          </mxGeometry>
        </mxCell>
        <mxCell id="cFWXLPSGByRplZVlARN5-3" value="&lt;div&gt;&amp;nbsp;&lt;/div&gt;" style="shape=umlBoundary;whiteSpace=wrap;html=1;fillColor=light-dark(#FFFFCC,#FFFFCC);" vertex="1" parent="1">
          <mxGeometry x="599" y="210" width="100" height="80" as="geometry" />
        </mxCell>
        <mxCell id="cFWXLPSGByRplZVlARN5-4" value="" style="endArrow=none;dashed=1;html=1;rounded=0;entryX=0.572;entryY=1.003;entryDx=0;entryDy=0;entryPerimeter=0;" edge="1" parent="1">
          <mxGeometry width="50" height="50" relative="1" as="geometry">
            <mxPoint x="648.5" y="360" as="sourcePoint" />
            <mxPoint x="648.5" y="310.24" as="targetPoint" />
          </mxGeometry>
        </mxCell>
        <mxCell id="cFWXLPSGByRplZVlARN5-5" value="" style="ellipse;shape=umlControl;whiteSpace=wrap;html=1;fillColor=light-dark(#FFFFCC,#FFFFCC);" vertex="1" parent="1">
          <mxGeometry x="840" y="210" width="70" height="80" as="geometry" />
        </mxCell>
        <mxCell id="cFWXLPSGByRplZVlARN5-6" value="" style="endArrow=none;dashed=1;html=1;rounded=0;entryX=0.497;entryY=1.013;entryDx=0;entryDy=0;entryPerimeter=0;" edge="1" parent="1">
          <mxGeometry width="50" height="50" relative="1" as="geometry">
            <mxPoint x="874.5" y="378.96" as="sourcePoint" />
            <mxPoint x="874.5" y="309.99999999999994" as="targetPoint" />
          </mxGeometry>
        </mxCell>
        <mxCell id="cFWXLPSGByRplZVlARN5-7" value="" style="ellipse;shape=umlEntity;whiteSpace=wrap;html=1;fillColor=light-dark(#FFFFCC,#FFFFCC);" vertex="1" parent="1">
          <mxGeometry x="1050" y="210" width="80" height="80" as="geometry" />
        </mxCell>
        <mxCell id="cFWXLPSGByRplZVlARN5-8" value="" style="shape=cylinder3;whiteSpace=wrap;html=1;boundedLbl=1;backgroundOutline=1;size=15;fillColor=light-dark(#FFFFCC,#FFFFCC);" vertex="1" parent="1">
          <mxGeometry x="1271" y="210" width="60" height="80" as="geometry" />
        </mxCell>
        <mxCell id="cFWXLPSGByRplZVlARN5-9" value="" style="endArrow=none;dashed=1;html=1;rounded=0;entryX=0.5;entryY=1;entryDx=0;entryDy=0;" edge="1" parent="1">
          <mxGeometry width="50" height="50" relative="1" as="geometry">
            <mxPoint x="1089.5" y="410" as="sourcePoint" />
            <mxPoint x="1089.5" y="310" as="targetPoint" />
          </mxGeometry>
        </mxCell>
        <mxCell id="cFWXLPSGByRplZVlARN5-10" value="" style="endArrow=none;dashed=1;html=1;rounded=0;entryX=0.5;entryY=1;entryDx=0;entryDy=0;entryPerimeter=0;" edge="1" parent="1">
          <mxGeometry width="50" height="50" relative="1" as="geometry">
            <mxPoint x="1299.5" y="430" as="sourcePoint" />
            <mxPoint x="1299.5" y="310" as="targetPoint" />
          </mxGeometry>
        </mxCell>
        <mxCell id="cFWXLPSGByRplZVlARN5-11" value="" style="endArrow=none;dashed=1;html=1;rounded=0;entryX=0.5;entryY=0.5;entryDx=0;entryDy=0;entryPerimeter=0;" edge="1" parent="1" source="cFWXLPSGByRplZVlARN5-80" target="cFWXLPSGByRplZVlARN5-12">
          <mxGeometry width="50" height="50" relative="1" as="geometry">
            <mxPoint x="445" y="1470" as="sourcePoint" />
            <mxPoint x="445" y="270" as="targetPoint" />
          </mxGeometry>
        </mxCell>
        <mxCell id="cFWXLPSGByRplZVlARN5-12" value="" style="html=1;points=[[0,0,0,0,5],[0,1,0,0,-5],[1,0,0,0,5],[1,1,0,0,-5]];perimeter=orthogonalPerimeter;outlineConnect=0;targetShapes=umlLifeline;portConstraint=eastwest;newEdgeStyle={&quot;curved&quot;:0,&quot;rounded&quot;:0};" vertex="1" parent="1">
          <mxGeometry x="440" y="350" width="10" height="30" as="geometry" />
        </mxCell>
        <mxCell id="cFWXLPSGByRplZVlARN5-13" value="" style="endArrow=none;dashed=1;html=1;rounded=0;entryX=0.572;entryY=1.003;entryDx=0;entryDy=0;entryPerimeter=0;" edge="1" parent="1" source="cFWXLPSGByRplZVlARN5-45" target="cFWXLPSGByRplZVlARN5-14">
          <mxGeometry width="50" height="50" relative="1" as="geometry">
            <mxPoint x="649.72" y="530" as="sourcePoint" />
            <mxPoint x="601" y="300" as="targetPoint" />
            <Array as="points" />
          </mxGeometry>
        </mxCell>
        <mxCell id="cFWXLPSGByRplZVlARN5-14" value="" style="html=1;points=[[0,0,0,0,5],[0,1,0,0,-5],[1,0,0,0,5],[1,1,0,0,-5]];perimeter=orthogonalPerimeter;outlineConnect=0;targetShapes=umlLifeline;portConstraint=eastwest;newEdgeStyle={&quot;curved&quot;:0,&quot;rounded&quot;:0};" vertex="1" parent="1">
          <mxGeometry x="644" y="350" width="10" height="60" as="geometry" />
        </mxCell>
        <mxCell id="cFWXLPSGByRplZVlARN5-15" value="Mở màn hình thông báo" style="html=1;verticalAlign=bottom;endArrow=block;curved=0;rounded=0;" edge="1" parent="1" target="cFWXLPSGByRplZVlARN5-14">
          <mxGeometry width="80" relative="1" as="geometry">
            <mxPoint x="450" y="360" as="sourcePoint" />
            <mxPoint x="530" y="360" as="targetPoint" />
          </mxGeometry>
        </mxCell>
        <mxCell id="cFWXLPSGByRplZVlARN5-16" value="Yêu cầu thông báo theo ngày(userId)" style="html=1;verticalAlign=bottom;endArrow=block;curved=0;rounded=0;" edge="1" parent="1">
          <mxGeometry width="80" relative="1" as="geometry">
            <mxPoint x="654" y="380" as="sourcePoint" />
            <mxPoint x="870" y="380" as="targetPoint" />
          </mxGeometry>
        </mxCell>
        <mxCell id="cFWXLPSGByRplZVlARN5-17" value="" style="endArrow=none;dashed=1;html=1;rounded=0;entryX=0.5;entryY=1;entryDx=0;entryDy=0;" edge="1" parent="1" source="cFWXLPSGByRplZVlARN5-50" target="cFWXLPSGByRplZVlARN5-18">
          <mxGeometry width="50" height="50" relative="1" as="geometry">
            <mxPoint x="1090" y="1010" as="sourcePoint" />
            <mxPoint x="1090" y="300" as="targetPoint" />
          </mxGeometry>
        </mxCell>
        <mxCell id="cFWXLPSGByRplZVlARN5-18" value="" style="html=1;points=[[0,0,0,0,5],[0,1,0,0,-5],[1,0,0,0,5],[1,1,0,0,-5]];perimeter=orthogonalPerimeter;outlineConnect=0;targetShapes=umlLifeline;portConstraint=eastwest;newEdgeStyle={&quot;curved&quot;:0,&quot;rounded&quot;:0};" vertex="1" parent="1">
          <mxGeometry x="1085" y="390" width="10" height="50" as="geometry" />
        </mxCell>
        <mxCell id="cFWXLPSGByRplZVlARN5-19" value="Lấy danh sách thông báo&lt;div&gt;&amp;nbsp;theo ngày(userId)&lt;/div&gt;" style="html=1;verticalAlign=bottom;endArrow=block;curved=0;rounded=0;" edge="1" parent="1" source="cFWXLPSGByRplZVlARN5-25" target="cFWXLPSGByRplZVlARN5-18">
          <mxGeometry width="80" relative="1" as="geometry">
            <mxPoint x="880" y="400" as="sourcePoint" />
            <mxPoint x="960" y="400" as="targetPoint" />
            <Array as="points">
              <mxPoint x="970" y="400" />
            </Array>
          </mxGeometry>
        </mxCell>
        <mxCell id="cFWXLPSGByRplZVlARN5-20" value="" style="endArrow=none;dashed=1;html=1;rounded=0;entryX=0.5;entryY=1;entryDx=0;entryDy=0;entryPerimeter=0;" edge="1" parent="1" source="cFWXLPSGByRplZVlARN5-52" target="cFWXLPSGByRplZVlARN5-21">
          <mxGeometry width="50" height="50" relative="1" as="geometry">
            <mxPoint x="1300" y="990" as="sourcePoint" />
            <mxPoint x="1300" y="300" as="targetPoint" />
          </mxGeometry>
        </mxCell>
        <mxCell id="cFWXLPSGByRplZVlARN5-21" value="" style="html=1;points=[[0,0,0,0,5],[0,1,0,0,-5],[1,0,0,0,5],[1,1,0,0,-5]];perimeter=orthogonalPerimeter;outlineConnect=0;targetShapes=umlLifeline;portConstraint=eastwest;newEdgeStyle={&quot;curved&quot;:0,&quot;rounded&quot;:0};" vertex="1" parent="1">
          <mxGeometry x="1295" y="410" width="10" height="20" as="geometry" />
        </mxCell>
        <mxCell id="cFWXLPSGByRplZVlARN5-22" value="Truy vấn thông báo&amp;nbsp;&lt;div&gt;theo ngày(userId)&lt;/div&gt;" style="html=1;verticalAlign=bottom;endArrow=block;curved=0;rounded=0;" edge="1" parent="1" target="cFWXLPSGByRplZVlARN5-21">
          <mxGeometry width="80" relative="1" as="geometry">
            <mxPoint x="1095" y="420" as="sourcePoint" />
            <mxPoint x="1175" y="420" as="targetPoint" />
          </mxGeometry>
        </mxCell>
        <mxCell id="cFWXLPSGByRplZVlARN5-23" value="" style="html=1;verticalAlign=bottom;endArrow=block;curved=0;rounded=0;" edge="1" parent="1" target="cFWXLPSGByRplZVlARN5-25">
          <mxGeometry width="80" relative="1" as="geometry">
            <mxPoint x="880" y="400" as="sourcePoint" />
            <mxPoint x="1085" y="400" as="targetPoint" />
          </mxGeometry>
        </mxCell>
        <mxCell id="cFWXLPSGByRplZVlARN5-24" value="" style="endArrow=none;dashed=1;html=1;rounded=0;entryX=0.497;entryY=1.013;entryDx=0;entryDy=0;entryPerimeter=0;" edge="1" parent="1" source="cFWXLPSGByRplZVlARN5-48" target="cFWXLPSGByRplZVlARN5-25">
          <mxGeometry width="50" height="50" relative="1" as="geometry">
            <mxPoint x="875" y="1020" as="sourcePoint" />
            <mxPoint x="875" y="301" as="targetPoint" />
          </mxGeometry>
        </mxCell>
        <mxCell id="cFWXLPSGByRplZVlARN5-25" value="" style="html=1;points=[[0,0,0,0,5],[0,1,0,0,-5],[1,0,0,0,5],[1,1,0,0,-5]];perimeter=orthogonalPerimeter;outlineConnect=0;targetShapes=umlLifeline;portConstraint=eastwest;newEdgeStyle={&quot;curved&quot;:0,&quot;rounded&quot;:0};" vertex="1" parent="1">
          <mxGeometry x="870" y="360" width="10" height="50" as="geometry" />
        </mxCell>
        <mxCell id="cFWXLPSGByRplZVlARN5-26" value="alt" style="shape=umlFrame;whiteSpace=wrap;html=1;pointerEvents=0;" vertex="1" parent="1">
          <mxGeometry x="461" y="450" width="869" height="290" as="geometry" />
        </mxCell>
        <mxCell id="cFWXLPSGByRplZVlARN5-27" value="[ Có thông báo ]" style="text;html=1;align=center;verticalAlign=middle;resizable=0;points=[];autosize=1;strokeColor=none;fillColor=none;" vertex="1" parent="1">
          <mxGeometry x="525" y="460" width="110" height="30" as="geometry" />
        </mxCell>
        <mxCell id="cFWXLPSGByRplZVlARN5-28" value="" style="html=1;points=[[0,0,0,0,5],[0,1,0,0,-5],[1,0,0,0,5],[1,1,0,0,-5]];perimeter=orthogonalPerimeter;outlineConnect=0;targetShapes=umlLifeline;portConstraint=eastwest;newEdgeStyle={&quot;curved&quot;:0,&quot;rounded&quot;:0};" vertex="1" parent="1">
          <mxGeometry x="1295" y="495" width="10" height="25" as="geometry" />
        </mxCell>
        <mxCell id="cFWXLPSGByRplZVlARN5-29" value="" style="html=1;points=[[0,0,0,0,5],[0,1,0,0,-5],[1,0,0,0,5],[1,1,0,0,-5]];perimeter=orthogonalPerimeter;outlineConnect=0;targetShapes=umlLifeline;portConstraint=eastwest;newEdgeStyle={&quot;curved&quot;:0,&quot;rounded&quot;:0};" vertex="1" parent="1">
          <mxGeometry x="1085" y="490" width="10" height="60" as="geometry" />
        </mxCell>
        <mxCell id="cFWXLPSGByRplZVlARN5-30" value="Danh sách thông báo" style="html=1;verticalAlign=bottom;endArrow=open;dashed=1;endSize=8;curved=0;rounded=0;" edge="1" parent="1">
          <mxGeometry relative="1" as="geometry">
            <mxPoint x="1295" y="510" as="sourcePoint" />
            <mxPoint x="1094.9999999999998" y="510" as="targetPoint" />
          </mxGeometry>
        </mxCell>
        <mxCell id="cFWXLPSGByRplZVlARN5-31" value="" style="html=1;points=[[0,0,0,0,5],[0,1,0,0,-5],[1,0,0,0,5],[1,1,0,0,-5]];perimeter=orthogonalPerimeter;outlineConnect=0;targetShapes=umlLifeline;portConstraint=eastwest;newEdgeStyle={&quot;curved&quot;:0,&quot;rounded&quot;:0};" vertex="1" parent="1">
          <mxGeometry x="870" y="520" width="10" height="50" as="geometry" />
        </mxCell>
        <mxCell id="cFWXLPSGByRplZVlARN5-32" value="Danh sách thông báo&amp;nbsp;&lt;br&gt;trong ngày" style="html=1;verticalAlign=bottom;endArrow=open;dashed=1;endSize=8;curved=0;rounded=0;" edge="1" parent="1" target="cFWXLPSGByRplZVlARN5-31">
          <mxGeometry relative="1" as="geometry">
            <mxPoint x="1085" y="534.29" as="sourcePoint" />
            <mxPoint x="1005" y="534.29" as="targetPoint" />
          </mxGeometry>
        </mxCell>
        <mxCell id="cFWXLPSGByRplZVlARN5-33" value="" style="html=1;points=[[0,0,0,0,5],[0,1,0,0,-5],[1,0,0,0,5],[1,1,0,0,-5]];perimeter=orthogonalPerimeter;outlineConnect=0;targetShapes=umlLifeline;portConstraint=eastwest;newEdgeStyle={&quot;curved&quot;:0,&quot;rounded&quot;:0};" vertex="1" parent="1">
          <mxGeometry x="644" y="535" width="10" height="45" as="geometry" />
        </mxCell>
        <mxCell id="cFWXLPSGByRplZVlARN5-34" value="Hiển thị danh sách thông báo&lt;br&gt;trong ngày" style="html=1;verticalAlign=bottom;endArrow=open;dashed=1;endSize=8;curved=0;rounded=0;" edge="1" parent="1" target="cFWXLPSGByRplZVlARN5-33">
          <mxGeometry relative="1" as="geometry">
            <mxPoint x="870" y="559.29" as="sourcePoint" />
            <mxPoint x="790" y="559.29" as="targetPoint" />
          </mxGeometry>
        </mxCell>
        <mxCell id="cFWXLPSGByRplZVlARN5-35" value="" style="endArrow=none;dashed=1;html=1;dashPattern=1 3;strokeWidth=2;rounded=0;exitX=0;exitY=0.698;exitDx=0;exitDy=0;exitPerimeter=0;entryX=1.001;entryY=0.58;entryDx=0;entryDy=0;entryPerimeter=0;" edge="1" parent="1" target="cFWXLPSGByRplZVlARN5-26">
          <mxGeometry width="50" height="50" relative="1" as="geometry">
            <mxPoint x="460" y="617.9999999999997" as="sourcePoint" />
            <mxPoint x="1320" y="620" as="targetPoint" />
          </mxGeometry>
        </mxCell>
        <mxCell id="cFWXLPSGByRplZVlARN5-36" value="Không có thông báo mới" style="text;html=1;align=center;verticalAlign=middle;resizable=0;points=[];autosize=1;strokeColor=none;fillColor=none;" vertex="1" parent="1">
          <mxGeometry x="460" y="618" width="150" height="30" as="geometry" />
        </mxCell>
        <mxCell id="cFWXLPSGByRplZVlARN5-37" value="" style="html=1;points=[[0,0,0,0,5],[0,1,0,0,-5],[1,0,0,0,5],[1,1,0,0,-5]];perimeter=orthogonalPerimeter;outlineConnect=0;targetShapes=umlLifeline;portConstraint=eastwest;newEdgeStyle={&quot;curved&quot;:0,&quot;rounded&quot;:0};" vertex="1" parent="1">
          <mxGeometry x="1295" y="648" width="10" height="32" as="geometry" />
        </mxCell>
        <mxCell id="cFWXLPSGByRplZVlARN5-38" value="" style="html=1;points=[[0,0,0,0,5],[0,1,0,0,-5],[1,0,0,0,5],[1,1,0,0,-5]];perimeter=orthogonalPerimeter;outlineConnect=0;targetShapes=umlLifeline;portConstraint=eastwest;newEdgeStyle={&quot;curved&quot;:0,&quot;rounded&quot;:0};" vertex="1" parent="1">
          <mxGeometry x="1085" y="648" width="10" height="62" as="geometry" />
        </mxCell>
        <mxCell id="cFWXLPSGByRplZVlARN5-39" value="" style="html=1;points=[[0,0,0,0,5],[0,1,0,0,-5],[1,0,0,0,5],[1,1,0,0,-5]];perimeter=orthogonalPerimeter;outlineConnect=0;targetShapes=umlLifeline;portConstraint=eastwest;newEdgeStyle={&quot;curved&quot;:0,&quot;rounded&quot;:0};" vertex="1" parent="1">
          <mxGeometry x="870" y="670" width="10" height="60" as="geometry" />
        </mxCell>
        <mxCell id="cFWXLPSGByRplZVlARN5-40" value="" style="html=1;points=[[0,0,0,0,5],[0,1,0,0,-5],[1,0,0,0,5],[1,1,0,0,-5]];perimeter=orthogonalPerimeter;outlineConnect=0;targetShapes=umlLifeline;portConstraint=eastwest;newEdgeStyle={&quot;curved&quot;:0,&quot;rounded&quot;:0};" vertex="1" parent="1">
          <mxGeometry x="644" y="690" width="10" height="40" as="geometry" />
        </mxCell>
        <mxCell id="cFWXLPSGByRplZVlARN5-41" value="Danh sách thông báo trống" style="html=1;verticalAlign=bottom;endArrow=open;dashed=1;endSize=8;curved=0;rounded=0;" edge="1" parent="1">
          <mxGeometry relative="1" as="geometry">
            <mxPoint x="1295" y="660" as="sourcePoint" />
            <mxPoint x="1095" y="660" as="targetPoint" />
          </mxGeometry>
        </mxCell>
        <mxCell id="cFWXLPSGByRplZVlARN5-42" value="Không có thông&lt;div&gt;&amp;nbsp;báo&lt;span style=&quot;background-color: light-dark(#ffffff, var(--ge-dark-color, #121212)); color: light-dark(rgb(0, 0, 0), rgb(255, 255, 255));&quot;&gt;&amp;nbsp;trong ngày&lt;/span&gt;&lt;/div&gt;" style="html=1;verticalAlign=bottom;endArrow=open;dashed=1;endSize=8;curved=0;rounded=0;" edge="1" parent="1" target="cFWXLPSGByRplZVlARN5-39">
          <mxGeometry relative="1" as="geometry">
            <mxPoint x="1080" y="687.33" as="sourcePoint" />
            <mxPoint x="1000" y="687.33" as="targetPoint" />
          </mxGeometry>
        </mxCell>
        <mxCell id="cFWXLPSGByRplZVlARN5-43" value="Hiển thị&lt;br&gt;&quot;Không có thông báo&quot;" style="html=1;verticalAlign=bottom;endArrow=open;dashed=1;endSize=8;curved=0;rounded=0;" edge="1" parent="1">
          <mxGeometry relative="1" as="geometry">
            <mxPoint x="870" y="710" as="sourcePoint" />
            <mxPoint x="654" y="710" as="targetPoint" />
          </mxGeometry>
        </mxCell>
        <mxCell id="cFWXLPSGByRplZVlARN5-44" value="" style="endArrow=none;dashed=1;html=1;rounded=0;entryX=0.572;entryY=1.003;entryDx=0;entryDy=0;entryPerimeter=0;" edge="1" parent="1">
          <mxGeometry width="50" height="50" relative="1" as="geometry">
            <mxPoint x="649.58" y="500" as="sourcePoint" />
            <mxPoint x="649.58" y="920.54" as="targetPoint" />
            <Array as="points">
              <mxPoint x="649.86" y="1870" />
            </Array>
          </mxGeometry>
        </mxCell>
        <mxCell id="cFWXLPSGByRplZVlARN5-45" value="" style="html=1;points=[[0,0,0,0,5],[0,1,0,0,-5],[1,0,0,0,5],[1,1,0,0,-5]];perimeter=orthogonalPerimeter;outlineConnect=0;targetShapes=umlLifeline;portConstraint=eastwest;newEdgeStyle={&quot;curved&quot;:0,&quot;rounded&quot;:0};" vertex="1" parent="1">
          <mxGeometry x="644" y="770" width="10" height="180" as="geometry" />
        </mxCell>
        <mxCell id="cFWXLPSGByRplZVlARN5-46" value="" style="html=1;points=[[0,0,0,0,5],[0,1,0,0,-5],[1,0,0,0,5],[1,1,0,0,-5]];perimeter=orthogonalPerimeter;outlineConnect=0;targetShapes=umlLifeline;portConstraint=eastwest;newEdgeStyle={&quot;curved&quot;:0,&quot;rounded&quot;:0};" vertex="1" parent="1">
          <mxGeometry x="440" y="770" width="10" height="140" as="geometry" />
        </mxCell>
        <mxCell id="cFWXLPSGByRplZVlARN5-47" value="" style="endArrow=none;dashed=1;html=1;rounded=0;entryX=0.497;entryY=1.013;entryDx=0;entryDy=0;entryPerimeter=0;" edge="1" parent="1" source="cFWXLPSGByRplZVlARN5-83" target="cFWXLPSGByRplZVlARN5-48">
          <mxGeometry width="50" height="50" relative="1" as="geometry">
            <mxPoint x="875" y="1460" as="sourcePoint" />
            <mxPoint x="875" y="411" as="targetPoint" />
          </mxGeometry>
        </mxCell>
        <mxCell id="cFWXLPSGByRplZVlARN5-48" value="" style="html=1;points=[[0,0,0,0,5],[0,1,0,0,-5],[1,0,0,0,5],[1,1,0,0,-5]];perimeter=orthogonalPerimeter;outlineConnect=0;targetShapes=umlLifeline;portConstraint=eastwest;newEdgeStyle={&quot;curved&quot;:0,&quot;rounded&quot;:0};" vertex="1" parent="1">
          <mxGeometry x="870" y="800" width="10" height="190" as="geometry" />
        </mxCell>
        <mxCell id="cFWXLPSGByRplZVlARN5-49" value="" style="endArrow=none;dashed=1;html=1;rounded=0;entryX=0.5;entryY=1;entryDx=0;entryDy=0;" edge="1" parent="1" source="cFWXLPSGByRplZVlARN5-90" target="cFWXLPSGByRplZVlARN5-50">
          <mxGeometry width="50" height="50" relative="1" as="geometry">
            <mxPoint x="1090" y="1470" as="sourcePoint" />
            <mxPoint x="1090" y="440" as="targetPoint" />
          </mxGeometry>
        </mxCell>
        <mxCell id="cFWXLPSGByRplZVlARN5-50" value="" style="html=1;points=[[0,0,0,0,5],[0,1,0,0,-5],[1,0,0,0,5],[1,1,0,0,-5]];perimeter=orthogonalPerimeter;outlineConnect=0;targetShapes=umlLifeline;portConstraint=eastwest;newEdgeStyle={&quot;curved&quot;:0,&quot;rounded&quot;:0};" vertex="1" parent="1">
          <mxGeometry x="1085" y="940" width="10" height="50" as="geometry" />
        </mxCell>
        <mxCell id="cFWXLPSGByRplZVlARN5-51" value="" style="endArrow=none;dashed=1;html=1;rounded=0;entryX=0.5;entryY=1;entryDx=0;entryDy=0;entryPerimeter=0;" edge="1" parent="1" source="cFWXLPSGByRplZVlARN5-85" target="cFWXLPSGByRplZVlARN5-52">
          <mxGeometry width="50" height="50" relative="1" as="geometry">
            <mxPoint x="1300" y="1470" as="sourcePoint" />
            <mxPoint x="1300" y="430" as="targetPoint" />
          </mxGeometry>
        </mxCell>
        <mxCell id="cFWXLPSGByRplZVlARN5-52" value="" style="html=1;points=[[0,0,0,0,5],[0,1,0,0,-5],[1,0,0,0,5],[1,1,0,0,-5]];perimeter=orthogonalPerimeter;outlineConnect=0;targetShapes=umlLifeline;portConstraint=eastwest;newEdgeStyle={&quot;curved&quot;:0,&quot;rounded&quot;:0};" vertex="1" parent="1">
          <mxGeometry x="1295" y="960" width="10" height="30" as="geometry" />
        </mxCell>
        <mxCell id="cFWXLPSGByRplZVlARN5-53" value="Chọn &quot;Lọc thông báo theo loại&quot;" style="html=1;verticalAlign=bottom;endArrow=block;curved=0;rounded=0;" edge="1" parent="1" target="cFWXLPSGByRplZVlARN5-45">
          <mxGeometry width="80" relative="1" as="geometry">
            <mxPoint x="450" y="790" as="sourcePoint" />
            <mxPoint x="640" y="790" as="targetPoint" />
          </mxGeometry>
        </mxCell>
        <mxCell id="cFWXLPSGByRplZVlARN5-54" value="Yêu cầu giao diện&amp;nbsp;&lt;br&gt;lọc thông báo theo loại" style="html=1;verticalAlign=bottom;endArrow=block;curved=0;rounded=0;" edge="1" parent="1">
          <mxGeometry width="80" relative="1" as="geometry">
            <mxPoint x="654" y="814.38" as="sourcePoint" />
            <mxPoint x="870" y="814.38" as="targetPoint" />
          </mxGeometry>
        </mxCell>
        <mxCell id="cFWXLPSGByRplZVlARN5-55" value="Hiển thị giao diện danh sách&lt;div&gt;&amp;nbsp;các loại thông báo&amp;nbsp;&lt;/div&gt;" style="html=1;verticalAlign=bottom;endArrow=open;dashed=1;endSize=8;curved=0;rounded=0;" edge="1" parent="1">
          <mxGeometry relative="1" as="geometry">
            <mxPoint x="870" y="870" as="sourcePoint" />
            <mxPoint x="654" y="870" as="targetPoint" />
          </mxGeometry>
        </mxCell>
        <mxCell id="cFWXLPSGByRplZVlARN5-56" value="Chọn ngày các loại thông báo&amp;nbsp;&lt;br&gt;Nhần &quot;Lọc&quot;" style="html=1;verticalAlign=bottom;endArrow=block;curved=0;rounded=0;" edge="1" parent="1" target="cFWXLPSGByRplZVlARN5-45">
          <mxGeometry width="80" relative="1" as="geometry">
            <mxPoint x="450" y="900" as="sourcePoint" />
            <mxPoint x="530" y="900" as="targetPoint" />
          </mxGeometry>
        </mxCell>
        <mxCell id="cFWXLPSGByRplZVlARN5-57" value="Yêu cầu lọc thông báo&lt;br&gt;(danh sách loại thông báo)" style="html=1;verticalAlign=bottom;endArrow=block;curved=0;rounded=0;" edge="1" parent="1" target="cFWXLPSGByRplZVlARN5-48">
          <mxGeometry width="80" relative="1" as="geometry">
            <mxPoint x="654" y="930" as="sourcePoint" />
            <mxPoint x="734" y="930" as="targetPoint" />
          </mxGeometry>
        </mxCell>
        <mxCell id="cFWXLPSGByRplZVlARN5-58" value="Lọc theo loại thông báo&lt;br&gt;(userId,danh sách loại thông báo)" style="html=1;verticalAlign=bottom;endArrow=block;curved=0;rounded=0;" edge="1" parent="1">
          <mxGeometry width="80" relative="1" as="geometry">
            <mxPoint x="880" y="950" as="sourcePoint" />
            <mxPoint x="1085" y="950" as="targetPoint" />
          </mxGeometry>
        </mxCell>
        <mxCell id="cFWXLPSGByRplZVlARN5-59" value="Truy vấn thông báo theo loại&lt;br&gt;(userId,danh sách loại thông báo)" style="html=1;verticalAlign=bottom;endArrow=block;curved=0;rounded=0;" edge="1" parent="1" target="cFWXLPSGByRplZVlARN5-52">
          <mxGeometry width="80" relative="1" as="geometry">
            <mxPoint x="1095" y="970" as="sourcePoint" />
            <mxPoint x="1175" y="970" as="targetPoint" />
          </mxGeometry>
        </mxCell>
        <mxCell id="cFWXLPSGByRplZVlARN5-60" value="alt" style="shape=umlFrame;whiteSpace=wrap;html=1;pointerEvents=0;" vertex="1" parent="1">
          <mxGeometry x="460" y="1000" width="870" height="290" as="geometry" />
        </mxCell>
        <mxCell id="cFWXLPSGByRplZVlARN5-61" value="[ Có thông báo ]" style="text;html=1;align=center;verticalAlign=middle;resizable=0;points=[];autosize=1;strokeColor=none;fillColor=none;" vertex="1" parent="1">
          <mxGeometry x="525" y="1000" width="110" height="30" as="geometry" />
        </mxCell>
        <mxCell id="cFWXLPSGByRplZVlARN5-62" value="" style="html=1;points=[[0,0,0,0,5],[0,1,0,0,-5],[1,0,0,0,5],[1,1,0,0,-5]];perimeter=orthogonalPerimeter;outlineConnect=0;targetShapes=umlLifeline;portConstraint=eastwest;newEdgeStyle={&quot;curved&quot;:0,&quot;rounded&quot;:0};" vertex="1" parent="1">
          <mxGeometry x="1085" y="1030" width="10" height="60" as="geometry" />
        </mxCell>
        <mxCell id="cFWXLPSGByRplZVlARN5-63" value="Danh sách thông báo&lt;div&gt;&amp;nbsp;theo bộ lọc&lt;/div&gt;" style="html=1;verticalAlign=bottom;endArrow=open;dashed=1;endSize=8;curved=0;rounded=0;" edge="1" parent="1" source="cFWXLPSGByRplZVlARN5-78">
          <mxGeometry relative="1" as="geometry">
            <mxPoint x="1295" y="1050" as="sourcePoint" />
            <mxPoint x="1094.9999999999998" y="1050" as="targetPoint" />
          </mxGeometry>
        </mxCell>
        <mxCell id="cFWXLPSGByRplZVlARN5-64" value="" style="html=1;points=[[0,0,0,0,5],[0,1,0,0,-5],[1,0,0,0,5],[1,1,0,0,-5]];perimeter=orthogonalPerimeter;outlineConnect=0;targetShapes=umlLifeline;portConstraint=eastwest;newEdgeStyle={&quot;curved&quot;:0,&quot;rounded&quot;:0};" vertex="1" parent="1">
          <mxGeometry x="870" y="1060" width="10" height="50" as="geometry" />
        </mxCell>
        <mxCell id="cFWXLPSGByRplZVlARN5-65" value="Danh sách thông báo&amp;nbsp;&lt;br&gt;theo bộ lọc" style="html=1;verticalAlign=bottom;endArrow=open;dashed=1;endSize=8;curved=0;rounded=0;" edge="1" parent="1" target="cFWXLPSGByRplZVlARN5-64">
          <mxGeometry relative="1" as="geometry">
            <mxPoint x="1085" y="1074.29" as="sourcePoint" />
            <mxPoint x="1005" y="1074.29" as="targetPoint" />
          </mxGeometry>
        </mxCell>
        <mxCell id="cFWXLPSGByRplZVlARN5-66" value="" style="html=1;points=[[0,0,0,0,5],[0,1,0,0,-5],[1,0,0,0,5],[1,1,0,0,-5]];perimeter=orthogonalPerimeter;outlineConnect=0;targetShapes=umlLifeline;portConstraint=eastwest;newEdgeStyle={&quot;curved&quot;:0,&quot;rounded&quot;:0};" vertex="1" parent="1">
          <mxGeometry x="644" y="1075" width="10" height="45" as="geometry" />
        </mxCell>
        <mxCell id="cFWXLPSGByRplZVlARN5-67" value="Hiển thị danh sách thông báo&lt;br&gt;theo bộ lọc" style="html=1;verticalAlign=bottom;endArrow=open;dashed=1;endSize=8;curved=0;rounded=0;" edge="1" parent="1" target="cFWXLPSGByRplZVlARN5-66">
          <mxGeometry relative="1" as="geometry">
            <mxPoint x="870" y="1099.29" as="sourcePoint" />
            <mxPoint x="790" y="1099.29" as="targetPoint" />
          </mxGeometry>
        </mxCell>
        <mxCell id="cFWXLPSGByRplZVlARN5-68" value="" style="endArrow=none;dashed=1;html=1;dashPattern=1 3;strokeWidth=2;rounded=0;exitX=0;exitY=0.698;exitDx=0;exitDy=0;exitPerimeter=0;entryX=1;entryY=0.547;entryDx=0;entryDy=0;entryPerimeter=0;" edge="1" parent="1" target="cFWXLPSGByRplZVlARN5-60">
          <mxGeometry width="50" height="50" relative="1" as="geometry">
            <mxPoint x="460" y="1157.9999999999995" as="sourcePoint" />
            <mxPoint x="1320" y="1159" as="targetPoint" />
          </mxGeometry>
        </mxCell>
        <mxCell id="cFWXLPSGByRplZVlARN5-69" value="[ Không có thông báo mới ]" style="text;html=1;align=center;verticalAlign=middle;resizable=0;points=[];autosize=1;strokeColor=none;fillColor=none;" vertex="1" parent="1">
          <mxGeometry x="450" y="1158" width="170" height="30" as="geometry" />
        </mxCell>
        <mxCell id="cFWXLPSGByRplZVlARN5-70" value="" style="html=1;points=[[0,0,0,0,5],[0,1,0,0,-5],[1,0,0,0,5],[1,1,0,0,-5]];perimeter=orthogonalPerimeter;outlineConnect=0;targetShapes=umlLifeline;portConstraint=eastwest;newEdgeStyle={&quot;curved&quot;:0,&quot;rounded&quot;:0};" vertex="1" parent="1">
          <mxGeometry x="1295" y="1188" width="10" height="32" as="geometry" />
        </mxCell>
        <mxCell id="cFWXLPSGByRplZVlARN5-71" value="" style="html=1;points=[[0,0,0,0,5],[0,1,0,0,-5],[1,0,0,0,5],[1,1,0,0,-5]];perimeter=orthogonalPerimeter;outlineConnect=0;targetShapes=umlLifeline;portConstraint=eastwest;newEdgeStyle={&quot;curved&quot;:0,&quot;rounded&quot;:0};" vertex="1" parent="1">
          <mxGeometry x="1085" y="1188" width="10" height="62" as="geometry" />
        </mxCell>
        <mxCell id="cFWXLPSGByRplZVlARN5-72" value="" style="html=1;points=[[0,0,0,0,5],[0,1,0,0,-5],[1,0,0,0,5],[1,1,0,0,-5]];perimeter=orthogonalPerimeter;outlineConnect=0;targetShapes=umlLifeline;portConstraint=eastwest;newEdgeStyle={&quot;curved&quot;:0,&quot;rounded&quot;:0};" vertex="1" parent="1">
          <mxGeometry x="870" y="1210" width="10" height="60" as="geometry" />
        </mxCell>
        <mxCell id="cFWXLPSGByRplZVlARN5-73" value="" style="html=1;points=[[0,0,0,0,5],[0,1,0,0,-5],[1,0,0,0,5],[1,1,0,0,-5]];perimeter=orthogonalPerimeter;outlineConnect=0;targetShapes=umlLifeline;portConstraint=eastwest;newEdgeStyle={&quot;curved&quot;:0,&quot;rounded&quot;:0};" vertex="1" parent="1">
          <mxGeometry x="644" y="1230" width="10" height="40" as="geometry" />
        </mxCell>
        <mxCell id="cFWXLPSGByRplZVlARN5-74" value="Danh sách thông báo trống" style="html=1;verticalAlign=bottom;endArrow=open;dashed=1;endSize=8;curved=0;rounded=0;" edge="1" parent="1">
          <mxGeometry relative="1" as="geometry">
            <mxPoint x="1295" y="1200" as="sourcePoint" />
            <mxPoint x="1095" y="1200" as="targetPoint" />
          </mxGeometry>
        </mxCell>
        <mxCell id="cFWXLPSGByRplZVlARN5-75" value="Không có thông&amp;nbsp;&lt;span style=&quot;background-color: light-dark(#ffffff, var(--ge-dark-color, #121212)); color: light-dark(rgb(0, 0, 0), rgb(255, 255, 255));&quot;&gt;báo&lt;/span&gt;&lt;span style=&quot;color: light-dark(rgb(0, 0, 0), rgb(255, 255, 255)); background-color: light-dark(#ffffff, var(--ge-dark-color, #121212));&quot;&gt;&amp;nbsp;&lt;/span&gt;&lt;div&gt;&lt;span style=&quot;color: light-dark(rgb(0, 0, 0), rgb(255, 255, 255)); background-color: light-dark(#ffffff, var(--ge-dark-color, #121212));&quot;&gt;tương ứng bộ lọc&lt;/span&gt;&lt;/div&gt;" style="html=1;verticalAlign=bottom;endArrow=open;dashed=1;endSize=8;curved=0;rounded=0;" edge="1" parent="1" target="cFWXLPSGByRplZVlARN5-72">
          <mxGeometry relative="1" as="geometry">
            <mxPoint x="1080" y="1227.33" as="sourcePoint" />
            <mxPoint x="1000" y="1227.33" as="targetPoint" />
          </mxGeometry>
        </mxCell>
        <mxCell id="cFWXLPSGByRplZVlARN5-76" value="Hiển thị&lt;br&gt;&quot;Không có thông báo&quot;" style="html=1;verticalAlign=bottom;endArrow=open;dashed=1;endSize=8;curved=0;rounded=0;" edge="1" parent="1">
          <mxGeometry relative="1" as="geometry">
            <mxPoint x="870" y="1250" as="sourcePoint" />
            <mxPoint x="654" y="1250" as="targetPoint" />
          </mxGeometry>
        </mxCell>
        <mxCell id="cFWXLPSGByRplZVlARN5-77" value="" style="html=1;verticalAlign=bottom;endArrow=open;dashed=1;endSize=8;curved=0;rounded=0;" edge="1" parent="1" target="cFWXLPSGByRplZVlARN5-78">
          <mxGeometry relative="1" as="geometry">
            <mxPoint x="1295" y="1050" as="sourcePoint" />
            <mxPoint x="1094.9999999999998" y="1050" as="targetPoint" />
          </mxGeometry>
        </mxCell>
        <mxCell id="cFWXLPSGByRplZVlARN5-78" value="" style="html=1;points=[[0,0,0,0,5],[0,1,0,0,-5],[1,0,0,0,5],[1,1,0,0,-5]];perimeter=orthogonalPerimeter;outlineConnect=0;targetShapes=umlLifeline;portConstraint=eastwest;newEdgeStyle={&quot;curved&quot;:0,&quot;rounded&quot;:0};" vertex="1" parent="1">
          <mxGeometry x="1295" y="1035" width="10" height="25" as="geometry" />
        </mxCell>
        <mxCell id="cFWXLPSGByRplZVlARN5-79" value="" style="endArrow=none;dashed=1;html=1;rounded=0;entryX=0.5;entryY=0.5;entryDx=0;entryDy=0;entryPerimeter=0;" edge="1" parent="1">
          <mxGeometry width="50" height="50" relative="1" as="geometry">
            <mxPoint x="444.58" y="1870" as="sourcePoint" />
            <mxPoint x="444.58" y="1305" as="targetPoint" />
          </mxGeometry>
        </mxCell>
        <mxCell id="cFWXLPSGByRplZVlARN5-80" value="" style="html=1;points=[[0,0,0,0,5],[0,1,0,0,-5],[1,0,0,0,5],[1,1,0,0,-5]];perimeter=orthogonalPerimeter;outlineConnect=0;targetShapes=umlLifeline;portConstraint=eastwest;newEdgeStyle={&quot;curved&quot;:0,&quot;rounded&quot;:0};" vertex="1" parent="1">
          <mxGeometry x="440" y="1320" width="10" height="30" as="geometry" />
        </mxCell>
        <mxCell id="cFWXLPSGByRplZVlARN5-81" value="" style="html=1;points=[[0,0,0,0,5],[0,1,0,0,-5],[1,0,0,0,5],[1,1,0,0,-5]];perimeter=orthogonalPerimeter;outlineConnect=0;targetShapes=umlLifeline;portConstraint=eastwest;newEdgeStyle={&quot;curved&quot;:0,&quot;rounded&quot;:0};" vertex="1" parent="1">
          <mxGeometry x="644" y="1310" width="10" height="200" as="geometry" />
        </mxCell>
        <mxCell id="cFWXLPSGByRplZVlARN5-82" value="" style="endArrow=none;dashed=1;html=1;rounded=0;entryX=0.497;entryY=1.013;entryDx=0;entryDy=0;entryPerimeter=0;exitX=0.485;exitY=1.001;exitDx=0;exitDy=0;exitPerimeter=0;" edge="1" parent="1" source="cFWXLPSGByRplZVlARN5-119" target="cFWXLPSGByRplZVlARN5-83">
          <mxGeometry width="50" height="50" relative="1" as="geometry">
            <mxPoint x="875" y="1900" as="sourcePoint" />
            <mxPoint x="875" y="992" as="targetPoint" />
          </mxGeometry>
        </mxCell>
        <mxCell id="cFWXLPSGByRplZVlARN5-83" value="" style="html=1;points=[[0,0,0,0,5],[0,1,0,0,-5],[1,0,0,0,5],[1,1,0,0,-5]];perimeter=orthogonalPerimeter;outlineConnect=0;targetShapes=umlLifeline;portConstraint=eastwest;newEdgeStyle={&quot;curved&quot;:0,&quot;rounded&quot;:0};" vertex="1" parent="1">
          <mxGeometry x="870" y="1330" width="10" height="220" as="geometry" />
        </mxCell>
        <mxCell id="cFWXLPSGByRplZVlARN5-84" value="" style="endArrow=none;dashed=1;html=1;rounded=0;entryX=0.5;entryY=1;entryDx=0;entryDy=0;entryPerimeter=0;exitX=0.928;exitY=1;exitDx=0;exitDy=0;exitPerimeter=0;" edge="1" parent="1" source="cFWXLPSGByRplZVlARN5-119" target="cFWXLPSGByRplZVlARN5-85">
          <mxGeometry width="50" height="50" relative="1" as="geometry">
            <mxPoint x="1300" y="1900" as="sourcePoint" />
            <mxPoint x="1300" y="990" as="targetPoint" />
          </mxGeometry>
        </mxCell>
        <mxCell id="cFWXLPSGByRplZVlARN5-85" value="" style="html=1;points=[[0,0,0,0,5],[0,1,0,0,-5],[1,0,0,0,5],[1,1,0,0,-5]];perimeter=orthogonalPerimeter;outlineConnect=0;targetShapes=umlLifeline;portConstraint=eastwest;newEdgeStyle={&quot;curved&quot;:0,&quot;rounded&quot;:0};" vertex="1" parent="1">
          <mxGeometry x="1295" y="1370" width="10" height="180" as="geometry" />
        </mxCell>
        <mxCell id="cFWXLPSGByRplZVlARN5-86" value="Chọn 1 thông báo&lt;div&gt;&amp;nbsp;trong danh sách&lt;/div&gt;" style="html=1;verticalAlign=bottom;endArrow=block;curved=0;rounded=0;" edge="1" parent="1" target="cFWXLPSGByRplZVlARN5-81">
          <mxGeometry width="80" relative="1" as="geometry">
            <mxPoint x="450" y="1330" as="sourcePoint" />
            <mxPoint x="530" y="1330" as="targetPoint" />
          </mxGeometry>
        </mxCell>
        <mxCell id="cFWXLPSGByRplZVlARN5-87" value="Yêu cầu nội dung chi tiết" style="html=1;verticalAlign=bottom;endArrow=block;curved=0;rounded=0;" edge="1" parent="1" target="cFWXLPSGByRplZVlARN5-83">
          <mxGeometry width="80" relative="1" as="geometry">
            <mxPoint x="654" y="1349.33" as="sourcePoint" />
            <mxPoint x="734" y="1349.33" as="targetPoint" />
          </mxGeometry>
        </mxCell>
        <mxCell id="cFWXLPSGByRplZVlARN5-88" value="Lấy nội dung chi tiết" style="html=1;verticalAlign=bottom;endArrow=block;curved=0;rounded=0;" edge="1" parent="1" target="cFWXLPSGByRplZVlARN5-90">
          <mxGeometry width="80" relative="1" as="geometry">
            <mxPoint x="880" y="1369.33" as="sourcePoint" />
            <mxPoint x="960" y="1369.33" as="targetPoint" />
          </mxGeometry>
        </mxCell>
        <mxCell id="cFWXLPSGByRplZVlARN5-89" value="" style="endArrow=none;dashed=1;html=1;rounded=0;entryX=0.5;entryY=1;entryDx=0;entryDy=0;exitX=0.708;exitY=1;exitDx=0;exitDy=0;exitPerimeter=0;" edge="1" parent="1" source="cFWXLPSGByRplZVlARN5-119" target="cFWXLPSGByRplZVlARN5-90">
          <mxGeometry width="50" height="50" relative="1" as="geometry">
            <mxPoint x="1090" y="1900" as="sourcePoint" />
            <mxPoint x="1090" y="990" as="targetPoint" />
          </mxGeometry>
        </mxCell>
        <mxCell id="cFWXLPSGByRplZVlARN5-90" value="" style="html=1;points=[[0,0,0,0,5],[0,1,0,0,-5],[1,0,0,0,5],[1,1,0,0,-5]];perimeter=orthogonalPerimeter;outlineConnect=0;targetShapes=umlLifeline;portConstraint=eastwest;newEdgeStyle={&quot;curved&quot;:0,&quot;rounded&quot;:0};" vertex="1" parent="1">
          <mxGeometry x="1085" y="1360" width="10" height="190" as="geometry" />
        </mxCell>
        <mxCell id="cFWXLPSGByRplZVlARN5-91" value="Truy vấn nội dung chi tiết" style="html=1;verticalAlign=bottom;endArrow=block;curved=0;rounded=0;" edge="1" parent="1" target="cFWXLPSGByRplZVlARN5-85">
          <mxGeometry width="80" relative="1" as="geometry">
            <mxPoint x="1095" y="1388.67" as="sourcePoint" />
            <mxPoint x="1290" y="1389" as="targetPoint" />
          </mxGeometry>
        </mxCell>
        <mxCell id="cFWXLPSGByRplZVlARN5-92" value="Nội dung chi tiết" style="html=1;verticalAlign=bottom;endArrow=open;dashed=1;endSize=8;curved=0;rounded=0;" edge="1" parent="1" target="cFWXLPSGByRplZVlARN5-90">
          <mxGeometry relative="1" as="geometry">
            <mxPoint x="1295" y="1430" as="sourcePoint" />
            <mxPoint x="1215" y="1430" as="targetPoint" />
          </mxGeometry>
        </mxCell>
        <mxCell id="cFWXLPSGByRplZVlARN5-93" value="Nội dung chi tiết thông báo" style="html=1;verticalAlign=bottom;endArrow=open;dashed=1;endSize=8;curved=0;rounded=0;" edge="1" parent="1" target="cFWXLPSGByRplZVlARN5-83">
          <mxGeometry relative="1" as="geometry">
            <mxPoint x="1085" y="1450" as="sourcePoint" />
            <mxPoint x="1005" y="1450" as="targetPoint" />
          </mxGeometry>
        </mxCell>
        <mxCell id="cFWXLPSGByRplZVlARN5-94" value="Hiển thị nội dung&amp;nbsp;&lt;div&gt;chi tiết thông báo&lt;/div&gt;" style="html=1;verticalAlign=bottom;endArrow=open;dashed=1;endSize=8;curved=0;rounded=0;" edge="1" parent="1" target="cFWXLPSGByRplZVlARN5-81">
          <mxGeometry relative="1" as="geometry">
            <mxPoint x="870" y="1480" as="sourcePoint" />
            <mxPoint x="790" y="1480" as="targetPoint" />
          </mxGeometry>
        </mxCell>
        <mxCell id="cFWXLPSGByRplZVlARN5-95" value="Đánh dấu thông báo đã đọc" style="html=1;verticalAlign=bottom;endArrow=block;curved=0;rounded=0;" edge="1" parent="1" target="cFWXLPSGByRplZVlARN5-90">
          <mxGeometry width="80" relative="1" as="geometry">
            <mxPoint x="880" y="1510" as="sourcePoint" />
            <mxPoint x="960" y="1510" as="targetPoint" />
          </mxGeometry>
        </mxCell>
        <mxCell id="cFWXLPSGByRplZVlARN5-96" value="Đánh dấu thông báo là đã đọc" style="html=1;verticalAlign=bottom;endArrow=block;curved=0;rounded=0;" edge="1" parent="1" target="cFWXLPSGByRplZVlARN5-85">
          <mxGeometry width="80" relative="1" as="geometry">
            <mxPoint x="1095" y="1530" as="sourcePoint" />
            <mxPoint x="1290" y="1530" as="targetPoint" />
          </mxGeometry>
        </mxCell>
        <mxCell id="cFWXLPSGByRplZVlARN5-97" value="alt" style="shape=umlFrame;whiteSpace=wrap;html=1;pointerEvents=0;" vertex="1" parent="1">
          <mxGeometry x="460" y="1560" width="870" height="270" as="geometry" />
        </mxCell>
        <mxCell id="cFWXLPSGByRplZVlARN5-98" value="[ Thành công ]" style="text;html=1;align=center;verticalAlign=middle;resizable=0;points=[];autosize=1;strokeColor=none;fillColor=none;" vertex="1" parent="1">
          <mxGeometry x="525" y="1560" width="100" height="30" as="geometry" />
        </mxCell>
        <mxCell id="cFWXLPSGByRplZVlARN5-99" value="" style="html=1;points=[[0,0,0,0,5],[0,1,0,0,-5],[1,0,0,0,5],[1,1,0,0,-5]];perimeter=orthogonalPerimeter;outlineConnect=0;targetShapes=umlLifeline;portConstraint=eastwest;newEdgeStyle={&quot;curved&quot;:0,&quot;rounded&quot;:0};" vertex="1" parent="1">
          <mxGeometry x="645" y="1620" width="10" height="40" as="geometry" />
        </mxCell>
        <mxCell id="cFWXLPSGByRplZVlARN5-100" value="" style="html=1;points=[[0,0,0,0,5],[0,1,0,0,-5],[1,0,0,0,5],[1,1,0,0,-5]];perimeter=orthogonalPerimeter;outlineConnect=0;targetShapes=umlLifeline;portConstraint=eastwest;newEdgeStyle={&quot;curved&quot;:0,&quot;rounded&quot;:0};" vertex="1" parent="1">
          <mxGeometry x="870" y="1590" width="10" height="70" as="geometry" />
        </mxCell>
        <mxCell id="cFWXLPSGByRplZVlARN5-101" value="" style="html=1;points=[[0,0,0,0,5],[0,1,0,0,-5],[1,0,0,0,5],[1,1,0,0,-5]];perimeter=orthogonalPerimeter;outlineConnect=0;targetShapes=umlLifeline;portConstraint=eastwest;newEdgeStyle={&quot;curved&quot;:0,&quot;rounded&quot;:0};" vertex="1" parent="1">
          <mxGeometry x="1085" y="1590" width="10" height="50" as="geometry" />
        </mxCell>
        <mxCell id="cFWXLPSGByRplZVlARN5-102" value="" style="html=1;points=[[0,0,0,0,5],[0,1,0,0,-5],[1,0,0,0,5],[1,1,0,0,-5]];perimeter=orthogonalPerimeter;outlineConnect=0;targetShapes=umlLifeline;portConstraint=eastwest;newEdgeStyle={&quot;curved&quot;:0,&quot;rounded&quot;:0};" vertex="1" parent="1">
          <mxGeometry x="1295" y="1590" width="10" height="30" as="geometry" />
        </mxCell>
        <mxCell id="cFWXLPSGByRplZVlARN5-103" value="OK" style="html=1;verticalAlign=bottom;endArrow=open;dashed=1;endSize=8;curved=0;rounded=0;entryX=0.573;entryY=0.261;entryDx=0;entryDy=0;entryPerimeter=0;" edge="1" parent="1" source="cFWXLPSGByRplZVlARN5-102" target="cFWXLPSGByRplZVlARN5-101">
          <mxGeometry relative="1" as="geometry">
            <mxPoint x="1270" y="1610" as="sourcePoint" />
            <mxPoint x="1190" y="1610" as="targetPoint" />
          </mxGeometry>
        </mxCell>
        <mxCell id="cFWXLPSGByRplZVlARN5-104" value="Đánh dấu đã đọc thành công" style="html=1;verticalAlign=bottom;endArrow=open;dashed=1;endSize=8;curved=0;rounded=0;exitX=0.5;exitY=0.5;exitDx=0;exitDy=0;exitPerimeter=0;" edge="1" parent="1" source="cFWXLPSGByRplZVlARN5-101" target="cFWXLPSGByRplZVlARN5-100">
          <mxGeometry relative="1" as="geometry">
            <mxPoint x="1050" y="1629.33" as="sourcePoint" />
            <mxPoint x="970" y="1629.33" as="targetPoint" />
          </mxGeometry>
        </mxCell>
        <mxCell id="cFWXLPSGByRplZVlARN5-105" value="Cập nhật trạng thái &quot;Đã đọc&quot;" style="html=1;verticalAlign=bottom;endArrow=open;dashed=1;endSize=8;curved=0;rounded=0;" edge="1" parent="1">
          <mxGeometry relative="1" as="geometry">
            <mxPoint x="870" y="1640" as="sourcePoint" />
            <mxPoint x="655" y="1640" as="targetPoint" />
          </mxGeometry>
        </mxCell>
        <mxCell id="cFWXLPSGByRplZVlARN5-106" value="" style="endArrow=none;dashed=1;html=1;dashPattern=1 3;strokeWidth=2;rounded=0;exitX=-0.002;exitY=0.777;exitDx=0;exitDy=0;exitPerimeter=0;entryX=0.999;entryY=0.466;entryDx=0;entryDy=0;entryPerimeter=0;" edge="1" parent="1" target="cFWXLPSGByRplZVlARN5-97">
          <mxGeometry width="50" height="50" relative="1" as="geometry">
            <mxPoint x="459.99999999999994" y="1684.9599999999998" as="sourcePoint" />
            <mxPoint x="1370" y="1685" as="targetPoint" />
          </mxGeometry>
        </mxCell>
        <mxCell id="cFWXLPSGByRplZVlARN5-107" value="" style="html=1;points=[[0,0,0,0,5],[0,1,0,0,-5],[1,0,0,0,5],[1,1,0,0,-5]];perimeter=orthogonalPerimeter;outlineConnect=0;targetShapes=umlLifeline;portConstraint=eastwest;newEdgeStyle={&quot;curved&quot;:0,&quot;rounded&quot;:0};" vertex="1" parent="1">
          <mxGeometry x="1296" y="1710" width="10" height="40" as="geometry" />
        </mxCell>
        <mxCell id="cFWXLPSGByRplZVlARN5-108" value="" style="html=1;points=[[0,0,0,0,5],[0,1,0,0,-5],[1,0,0,0,5],[1,1,0,0,-5]];perimeter=orthogonalPerimeter;outlineConnect=0;targetShapes=umlLifeline;portConstraint=eastwest;newEdgeStyle={&quot;curved&quot;:0,&quot;rounded&quot;:0};" vertex="1" parent="1">
          <mxGeometry x="1085" y="1710" width="10" height="80" as="geometry" />
        </mxCell>
        <mxCell id="cFWXLPSGByRplZVlARN5-109" value="" style="html=1;points=[[0,0,0,0,5],[0,1,0,0,-5],[1,0,0,0,5],[1,1,0,0,-5]];perimeter=orthogonalPerimeter;outlineConnect=0;targetShapes=umlLifeline;portConstraint=eastwest;newEdgeStyle={&quot;curved&quot;:0,&quot;rounded&quot;:0};" vertex="1" parent="1">
          <mxGeometry x="870" y="1744" width="10" height="80" as="geometry" />
        </mxCell>
        <mxCell id="cFWXLPSGByRplZVlARN5-110" value="" style="html=1;points=[[0,0,0,0,5],[0,1,0,0,-5],[1,0,0,0,5],[1,1,0,0,-5]];perimeter=orthogonalPerimeter;outlineConnect=0;targetShapes=umlLifeline;portConstraint=eastwest;newEdgeStyle={&quot;curved&quot;:0,&quot;rounded&quot;:0};" vertex="1" parent="1">
          <mxGeometry x="645" y="1750" width="10" height="70" as="geometry" />
        </mxCell>
        <mxCell id="cFWXLPSGByRplZVlARN5-111" value="[ Không thành công ]" style="text;html=1;align=center;verticalAlign=middle;resizable=0;points=[];autosize=1;strokeColor=none;fillColor=none;" vertex="1" parent="1">
          <mxGeometry x="460" y="1690" width="130" height="30" as="geometry" />
        </mxCell>
        <mxCell id="cFWXLPSGByRplZVlARN5-112" value="FAIL" style="html=1;verticalAlign=bottom;endArrow=open;dashed=1;endSize=8;curved=0;rounded=0;" edge="1" parent="1" target="cFWXLPSGByRplZVlARN5-108">
          <mxGeometry relative="1" as="geometry">
            <mxPoint x="1296" y="1730" as="sourcePoint" />
            <mxPoint x="1216" y="1730" as="targetPoint" />
          </mxGeometry>
        </mxCell>
        <mxCell id="cFWXLPSGByRplZVlARN5-113" value="Đánh dấu đã đọc&lt;div&gt;&amp;nbsp;không thành công&lt;/div&gt;" style="html=1;verticalAlign=bottom;endArrow=open;dashed=1;endSize=8;curved=0;rounded=0;" edge="1" parent="1" target="cFWXLPSGByRplZVlARN5-109">
          <mxGeometry relative="1" as="geometry">
            <mxPoint x="1085" y="1759.33" as="sourcePoint" />
            <mxPoint x="1005" y="1759.33" as="targetPoint" />
          </mxGeometry>
        </mxCell>
        <mxCell id="cFWXLPSGByRplZVlARN5-114" value="Hiển thị lỗi khi cập nhật&lt;div&gt;&amp;nbsp;trạng thái thông báo&lt;/div&gt;" style="html=1;verticalAlign=bottom;endArrow=open;dashed=1;endSize=8;curved=0;rounded=0;" edge="1" parent="1" target="cFWXLPSGByRplZVlARN5-110">
          <mxGeometry relative="1" as="geometry">
            <mxPoint x="870" y="1790" as="sourcePoint" />
            <mxPoint x="790" y="1790" as="targetPoint" />
          </mxGeometry>
        </mxCell>
        <mxCell id="cFWXLPSGByRplZVlARN5-115" value="Giao diện" style="text;html=1;align=center;verticalAlign=middle;resizable=0;points=[];autosize=1;strokeColor=none;fillColor=none;" vertex="1" parent="1">
          <mxGeometry x="615" y="290" width="70" height="30" as="geometry" />
        </mxCell>
        <mxCell id="cFWXLPSGByRplZVlARN5-116" value="&lt;span style=&quot;text-wrap-mode: wrap;&quot;&gt;Notification&lt;/span&gt;&lt;span style=&quot;text-wrap-mode: wrap; background-color: transparent; color: light-dark(rgb(0, 0, 0), rgb(255, 255, 255));&quot;&gt;Controller&lt;/span&gt;" style="text;html=1;align=center;verticalAlign=middle;resizable=0;points=[];autosize=1;strokeColor=none;fillColor=none;" vertex="1" parent="1">
          <mxGeometry x="810" y="290" width="130" height="30" as="geometry" />
        </mxCell>
        <mxCell id="cFWXLPSGByRplZVlARN5-117" value="&lt;span style=&quot;text-wrap-mode: wrap;&quot;&gt;Notification&lt;/span&gt;&lt;span style=&quot;text-wrap-mode: wrap; background-color: transparent; color: light-dark(rgb(0, 0, 0), rgb(255, 255, 255));&quot;&gt;Service&lt;/span&gt;" style="text;html=1;align=center;verticalAlign=middle;resizable=0;points=[];autosize=1;strokeColor=none;fillColor=none;" vertex="1" parent="1">
          <mxGeometry x="1030" y="288" width="120" height="30" as="geometry" />
        </mxCell>
        <mxCell id="cFWXLPSGByRplZVlARN5-118" value="&lt;span style=&quot;text-wrap-mode: wrap;&quot;&gt;Database&lt;/span&gt;" style="text;html=1;align=center;verticalAlign=middle;resizable=0;points=[];autosize=1;strokeColor=none;fillColor=none;" vertex="1" parent="1">
          <mxGeometry x="1265" y="290" width="70" height="30" as="geometry" />
        </mxCell>
        <mxCell id="cFWXLPSGByRplZVlARN5-119" value="Xem thông báo theo loại" style="shape=umlFrame;whiteSpace=wrap;html=1;pointerEvents=0;width=110;height=40;" vertex="1" parent="1">
          <mxGeometry x="410" y="170" width="960" height="1700" as="geometry" />
        </mxCell>
      </root>
    </mxGraphModel>
  </diagram>
</mxfile>
